<svg xmlns="http://www.w3.org/2000/svg" width="64" height="64"><linearGradient id="a" x1="32" x2="32" y1="9.083" y2="54.676" gradientUnits="userSpaceOnUse" spreadMethod="reflect"><stop offset="0" stop-color="#1a6dff"/><stop offset="1" stop-color="#c822ff"/></linearGradient><path fill="url(#a)" d="M50 55H14c-2.757 0-5-2.243-5-5V14c0-2.757 2.243-5 5-5h36c2.757 0 5 2.243 5 5v36c0 2.757-2.243 5-5 5zM14 11c-1.654 0-3 1.346-3 3v36c0 1.654 1.346 3 3 3h36c1.654 0 3-1.346 3-3V14c0-1.654-1.346-3-3-3H14z"/><linearGradient id="b" x1="32" x2="32" y1="20" y2="44" gradientUnits="userSpaceOnUse" spreadMethod="reflect"><stop offset="0" stop-color="#6dc7ff"/><stop offset="1" stop-color="#e6abff"/></linearGradient><path fill="url(#b)" d="M38.111 20L32 30.909 25.889 20H22l8 14.25V44h4v-9.75L42 20z"/></svg>